# xmcd CD database file
#
# Track frame offsets:
#	150
#	14082
#	30071
#	43655
#	55815
#	69744
#	84466
#	98805
#	112403
#	124300
#	138914
#	152271
#	166564
#	180641
#	193005
#	205464
#	218566
#	232323
#
# Disc length: 3269 seconds
#
# Revision: 1
# Processed by: cddbd v1.5.2PL0 Copyright (c) Steve Scherf et al.
# Submitted via: CDex 1.51
#
DISCID=f90cc312
DTITLE=Washboard Sam - The Blues cd1 (1935 -1947) Cd 01
DYEAR=1935
DGENRE=Blues
TTITLE0=Mama Don't Allow Nº 2 
TTITLE1=Crazy About Nancy Jane 
TTITLE2=I Love All My Women 
TTITLE3=Come On In 
TTITLE4=Nashville, Tennessee 
TTITLE5=Easy Ridin' Mama 
TTITLE6=Back Door 
TTITLE7=Washboard's Barrelhouse Song 
TTITLE8=Want To Woogie Some More 
TTITLE9=Ladies' Man 
TTITLE10=Where Were You Last Night? 
TTITLE11=My Woman's A Sender 
TTITLE12=Down At The Old Village Store 
TTITLE13=The Gal I Love 
TTITLE14=My Bucket's Got A Hole In It 
TTITLE15=Walkin' In My Sleep 
TTITLE16=Washboard Swing 
TTITLE17=Wasn't He Bad? 
EXTD=YEAR: 1935
EXTT0=
EXTT1=
EXTT2=
EXTT3=
EXTT4=
EXTT5=
EXTT6=
EXTT7=
EXTT8=
EXTT9=
EXTT10=
EXTT11=
EXTT12=
EXTT13=
EXTT14=
EXTT15=
EXTT16=
EXTT17=
PLAYORDER=
